<svg width="27" height="19" viewBox="0 0 27 19" fill="none" xmlns="http://www.w3.org/2000/svg">
<path fill-rule="evenodd" clip-rule="evenodd" d="M1.36728 0.000136298C0.881114 -0.00678542 0.428907 0.250356 0.183817 0.673097C-0.0612724 1.09584 -0.0612724 1.61868 0.183817 2.04142C0.428907 2.46416 0.881114 2.7213 1.36728 2.71438H25.6327C26.1189 2.7213 26.5711 2.46416 26.8162 2.04142C27.0613 1.61868 27.0613 1.09584 26.8162 0.673097C26.5711 0.250356 26.1189 -0.00678542 25.6327 0.000136298H1.36728ZM1.36728 8.14288C0.881114 8.13595 0.428907 8.3931 0.183817 8.81584C-0.0612724 9.23858 -0.0612724 9.76142 0.183817 10.1842C0.428907 10.6069 0.881114 10.864 1.36728 10.8571H25.6327C26.1189 10.864 26.5711 10.6069 26.8162 10.1842C27.0613 9.76142 27.0613 9.23858 26.8162 8.81584C26.5711 8.3931 26.1189 8.13595 25.6327 8.14288H1.36728ZM0.183817 16.9586C0.428907 16.5358 0.881114 16.2787 1.36728 16.2856H25.6327C26.1189 16.2787 26.5711 16.5358 26.8162 16.9586C27.0613 17.3813 27.0613 17.9042 26.8162 18.3269C26.5711 18.7496 26.1189 19.0068 25.6327 18.9999H1.36728C0.881114 19.0068 0.428907 18.7496 0.183817 18.3269C-0.0612724 17.9042 -0.0612724 17.3813 0.183817 16.9586Z" fill="black"/>
</svg>
