<svg width="32" height="32" viewBox="0 0 32 32" fill="none" xmlns="http://www.w3.org/2000/svg">
<path fill-rule="evenodd" clip-rule="evenodd" d="M3.80952 0H28.1905C30.291 0 32 1.70895 32 3.80952V28.1905C32 30.291 30.291 32 28.1905 32H3.80952C1.70895 32 0 30.291 0 28.1905V3.80952C0 1.70895 1.70895 0 3.80952 0ZM24.6217 13.987C24.7992 13.987 24.9745 13.9764 25.1474 13.9604V10.4023C22.3863 10.2042 20.1775 8.04495 19.8895 5.30895H16.8297C16.8297 5.30895 16.7977 20.1653 16.7977 20.2377C16.7977 22.0693 15.1802 23.5124 13.3486 23.5124C11.517 23.5124 10.0328 22.0282 10.0328 20.1966C10.0328 18.365 11.517 16.8808 13.3486 16.8808C13.4506 16.8808 13.5492 16.8942 13.6479 16.9077C13.6819 16.9124 13.7159 16.917 13.7501 16.9211V13.7196C13.7184 13.7176 13.6868 13.7154 13.6552 13.7132C13.5536 13.7061 13.452 13.699 13.3486 13.699C9.76076 13.699 6.85181 16.608 6.85181 20.1958C6.85181 23.7836 9.76076 26.6926 13.3486 26.6926C16.9364 26.6926 19.8453 23.7836 19.8453 20.1958V11.4057C20.867 12.9592 22.6232 13.987 24.6217 13.987Z" fill="black"/>
</svg>
