<svg width="27" height="27" viewBox="0 0 27 27" fill="none" xmlns="http://www.w3.org/2000/svg">
<path fill-rule="evenodd" clip-rule="evenodd" d="M3.21429 0H23.7857C25.5581 0 27 1.44193 27 3.21429V23.7857C27 25.5581 25.5581 27 23.7857 27H3.21429C1.44193 27 0 25.5581 0 23.7857V3.21429C0 1.44193 1.44193 0 3.21429 0ZM20.7746 11.8016C20.9244 11.8016 21.0722 11.7926 21.2181 11.7791V8.77693C18.8884 8.60979 17.0248 6.78793 16.7818 4.47943H14.2001C14.2001 4.47943 14.1731 17.0145 14.1731 17.0756C14.1731 18.621 12.8083 19.8386 11.2629 19.8386C9.71743 19.8386 8.46514 18.5863 8.46514 17.0409C8.46514 15.4954 9.71743 14.2431 11.2629 14.2431C11.3489 14.2431 11.4321 14.2545 11.5154 14.2659C11.5441 14.2698 11.5728 14.2738 11.6016 14.2772V11.5759C11.5749 11.5742 11.5483 11.5724 11.5216 11.5705C11.4359 11.5646 11.3501 11.5586 11.2629 11.5586C8.23564 11.5586 5.78121 14.013 5.78121 17.0402C5.78121 20.0674 8.23564 22.5219 11.2629 22.5219C14.2901 22.5219 16.7445 20.0674 16.7445 17.0402V9.62357C17.6066 10.9344 19.0884 11.8016 20.7746 11.8016Z" fill="white"/>
</svg>
