<?xml version="1.0" standalone="no"?>
<!DOCTYPE svg PUBLIC "-//W3C//DTD SVG 20010904//EN"
 "http://www.w3.org/TR/2001/REC-SVG-20010904/DTD/svg10.dtd">
<svg version="1.0" xmlns="http://www.w3.org/2000/svg" width="133.000000pt" height="29.000000pt" viewBox="0 0 133.000000 29.000000" preserveAspectRatio="xMidYMid meet">
  <g transform="translate(0.000000,29.000000) scale(0.100000,-0.100000)"
  fill="#000000" stroke="none">
  <path d="M83 271 c-32 -15 -48 -31 -64 -64 -28 -57 -20 -105 25 -154 28 -31
  40 -37 87 -40 151 -11 211 158 88 249 -38 28 -88 32 -136 9z m120 -73 c39 -47
  5 -128 -55 -128 -41 0 -63 14 -78 49 -32 79 77 145 133 79z"/>
  <path d="M735 276 c-118 -37 -160 -126 -95 -200 44 -50 104 -70 190 -64 161
  12 229 135 125 227 -20 17 -54 33 -85 40 -63 14 -84 13 -135 -3z m168 -75 c31
  -18 45 -56 30 -80 -16 -27 -76 -51 -126 -51 -61 0 -124 31 -133 65 -19 74 138
  120 229 66z"/>
  <path d="M344 265 c-13 -33 4 -45 61 -45 30 0 55 -2 55 -5 0 -2 -31 -45 -70
  -96 -38 -50 -70 -95 -70 -100 0 -11 231 -12 248 0 8 5 12 17 10 27 -3 16 -14
  19 -71 22 -37 2 -67 6 -67 9 0 4 32 48 70 99 39 50 70 94 70 98 0 3 -52 6
  -115 6 -94 0 -117 -3 -121 -15z"/>
  <path d="M1060 156 c0 -129 8 -154 44 -140 12 5 16 20 16 70 0 35 4 64 8 64 5
  0 49 -31 98 -70 l89 -69 3 121 c1 67 0 128 -3 136 -3 7 -15 12 -27 10 -21 -3
  -23 -9 -26 -70 -2 -38 -5 -68 -8 -68 -2 0 -45 32 -93 70 -49 39 -92 70 -95 70
  -3 0 -6 -56 -6 -124z"/>
  </g>
</svg>
